<?xml version="1.0" encoding="utf-8"?>
<!-- Generator: Adobe Illustrator 25.0.0, SVG Export Plug-In . SVG Version: 6.00 Build 0)  -->
<svg version="1.1" id="Слой_1" xmlns="http://www.w3.org/2000/svg" xmlns:xlink="http://www.w3.org/1999/xlink" x="0px" y="0px"
	 width="229px" height="149px" viewBox="0 0 229 149" style="enable-background:new 0 0 229 149;" xml:space="preserve">
<style type="text/css">
	.st0{fill:#EEF3FF;}
	.st1{fill:#E1EAFF;}
	.st2{fill:#D5E0FB;}
	.st3{fill:#ECF1FC;}
</style>
<g>
	<path class="st0" d="M63.4,70C53.2,70,45,78.4,45,88.8h36.7C81.7,78.4,73.5,70,63.4,70z"/>
</g>
<g>
	<path class="st1" d="M157.6,66C143.5,66,132,77.6,132,92h51.2C183.2,77.6,171.7,66,157.6,66z"/>
</g>
<g>
	<path class="st2" d="M106.9,60C85.4,60,68,77.5,68,99h77.8C145.8,77.5,128.4,60,106.9,60z"/>
</g>
<g>
	<path class="st3" d="M60.5,40C51.9,40,45,47.2,45,56h31C76,47.2,69.1,40,60.5,40z"/>
</g>
</svg>
