<svg width="25" height="21" viewBox="0 0 25 21" fill="none" xmlns="http://www.w3.org/2000/svg">
<path d="M10.7601 11.87C9.89008 12.07 9.06008 12.42 8.33008 12.89" stroke="#4074F8" stroke-width="1.5" stroke-miterlimit="10" stroke-linecap="round" stroke-linejoin="round"/>
<path d="M16.6702 12.88C15.9402 12.41 15.1102 12.06 14.2402 11.86" stroke="#4074F8" stroke-width="1.5" stroke-miterlimit="10" stroke-linecap="round" stroke-linejoin="round"/>
<path d="M20.1299 17.76C19.9299 16.89 19.5799 16.06 19.1099 15.33" stroke="#4074F8" stroke-width="1.5" stroke-miterlimit="10" stroke-linecap="round" stroke-linejoin="round"/>
<path d="M5.87986 15.33C5.40986 16.06 5.05986 16.89 4.85986 17.76" stroke="#4074F8" stroke-width="1.5" stroke-miterlimit="10" stroke-linecap="round" stroke-linejoin="round"/>
<path d="M16.3698 20C16.3998 19.84 16.4098 19.67 16.4098 19.5C16.4098 17.33 14.6698 15.59 12.4998 15.59C10.3298 15.59 8.58984 17.33 8.58984 19.5C8.58984 19.67 8.59984 19.84 8.62984 20" stroke="#4074F8" stroke-width="1.5" stroke-miterlimit="10" stroke-linecap="round" stroke-linejoin="round"/>
<path d="M10.7598 11.87V9.5H14.2398V11.87" stroke="#4074F8" stroke-width="1.5" stroke-miterlimit="10" stroke-linecap="round" stroke-linejoin="round"/>
<path d="M16.6699 12.88L18.3399 11.2L20.7999 13.66L19.1199 15.33" stroke="#4074F8" stroke-width="1.5" stroke-miterlimit="10" stroke-linecap="round" stroke-linejoin="round"/>
<path d="M20.1299 17.76H22.4999V20" stroke="#4074F8" stroke-width="1.5" stroke-miterlimit="10" stroke-linecap="round" stroke-linejoin="round"/>
<path d="M2.5 20V17.76H4.87" stroke="#4074F8" stroke-width="1.5" stroke-miterlimit="10" stroke-linecap="round" stroke-linejoin="round"/>
<path d="M5.8802 15.33L4.2002 13.66L6.6602 11.2L8.3302 12.88" stroke="#4074F8" stroke-width="1.5" stroke-miterlimit="10" stroke-linecap="round" stroke-linejoin="round"/>
<path d="M23 20H2C1.45 20 1 19.55 1 19V1H24V19C24 19.55 23.55 20 23 20Z" stroke="#4074F8" stroke-width="1.5" stroke-miterlimit="10" stroke-linecap="round" stroke-linejoin="round"/>
<path d="M1 5H24" stroke="#4074F8" stroke-width="1.5" stroke-miterlimit="10" stroke-linecap="round" stroke-linejoin="round"/>
<path d="M4 3.5C4.27614 3.5 4.5 3.27614 4.5 3C4.5 2.72386 4.27614 2.5 4 2.5C3.72386 2.5 3.5 2.72386 3.5 3C3.5 3.27614 3.72386 3.5 4 3.5Z" fill="#4074F8"/>
<path d="M6 3.5C6.27614 3.5 6.5 3.27614 6.5 3C6.5 2.72386 6.27614 2.5 6 2.5C5.72386 2.5 5.5 2.72386 5.5 3C5.5 3.27614 5.72386 3.5 6 3.5Z" fill="#4074F8"/>
<path d="M8 3.5C8.27614 3.5 8.5 3.27614 8.5 3C8.5 2.72386 8.27614 2.5 8 2.5C7.72386 2.5 7.5 2.72386 7.5 3C7.5 3.27614 7.72386 3.5 8 3.5Z" fill="#4074F8"/>
</svg>
