<svg width="23" height="25" viewBox="0 0 23 25" fill="none" xmlns="http://www.w3.org/2000/svg">
<path d="M22 6H1V13H22V6Z" stroke="#4074F8" stroke-width="1.5" stroke-miterlimit="10" stroke-linecap="round" stroke-linejoin="round"/>
<path d="M22 6H1L3.27 2.01C3.63 1.39 4.29 1 5.01 1H17.99C18.71 1 19.37 1.39 19.73 2.01L22 6Z" stroke="#4074F8" stroke-width="1.5" stroke-miterlimit="10" stroke-linecap="round" stroke-linejoin="round"/>
<path d="M21 20H2C1.45 20 1 19.55 1 19V13H22V19C22 19.55 21.55 20 21 20Z" stroke="#4074F8" stroke-width="1.5" stroke-miterlimit="10" stroke-linecap="round" stroke-linejoin="round"/>
<path d="M4.5 10.5C5.05228 10.5 5.5 10.0523 5.5 9.5C5.5 8.94772 5.05228 8.5 4.5 8.5C3.94772 8.5 3.5 8.94772 3.5 9.5C3.5 10.0523 3.94772 10.5 4.5 10.5Z" fill="#4074F8"/>
<path d="M4.5 17.5C5.05228 17.5 5.5 17.0523 5.5 16.5C5.5 15.9477 5.05228 15.5 4.5 15.5C3.94772 15.5 3.5 15.9477 3.5 16.5C3.5 17.0523 3.94772 17.5 4.5 17.5Z" fill="#4074F8"/>
<path d="M12 10H19" stroke="#4074F8" stroke-width="1.5" stroke-miterlimit="10" stroke-linecap="round"/>
<path d="M12 17H19" stroke="#4074F8" stroke-width="1.5" stroke-miterlimit="10" stroke-linecap="round"/>
<path d="M3 24H19" stroke="#4074F8" stroke-width="1.5" stroke-miterlimit="10" stroke-linecap="round"/>
<path d="M11 20V24" stroke="#4074F8" stroke-width="1.5" stroke-miterlimit="10" stroke-linecap="round"/>
</svg>
