<svg width="58" height="43" viewBox="0 0 58 43" fill="none" xmlns="http://www.w3.org/2000/svg">
<path d="M21.4679 32.8519C21.9502 32.3405 22.4391 31.9034 22.8321 31.3908C23.4996 30.521 24.1471 29.6288 24.7231 28.6959C24.9687 28.2982 25.1964 28.2566 25.5246 28.4447C26.1978 28.83 26.9245 28.7985 27.6445 28.741C28.5655 28.6666 29.213 27.9636 29.1192 27.175C29.05 26.5948 28.6381 26.2546 28.1737 26.0056C26.6867 25.2069 25.1808 24.4453 23.695 23.6443C21.9301 22.6912 20.2679 21.5984 19.2866 19.7485C18.9038 19.0264 18.6905 18.2062 18.2675 17.5133C17.2773 15.8922 15.8986 14.8444 13.9774 14.4276C10.5213 13.6784 7.12435 15.962 6.34516 19.2956C5.79928 21.6299 5.9377 23.8775 7.29291 25.9234C8.4617 27.6876 10.1507 28.6182 12.2326 28.7387C15.1663 28.9089 17.3264 27.6324 18.6057 24.9658C18.9361 24.2774 19.0377 23.4708 19.2052 22.7092C19.2878 22.3329 19.2811 21.9352 19.3201 21.4913C19.4775 21.5511 19.6003 21.5612 19.6617 21.6277C21.0393 23.1227 22.7751 24.0904 24.5546 24.977C25.0502 25.2249 25.2065 25.4603 25.0312 26.0022C23.7955 29.8214 21.392 32.5647 17.6635 34.018C16.0482 34.6477 14.3224 34.6906 12.6032 34.5024C10.3907 34.2602 8.49742 33.3082 6.84081 31.8369C6.71913 31.7287 6.58517 31.6363 6.36414 31.464C6.36414 32.1771 6.34851 32.7889 6.36972 33.3995C6.38646 33.885 6.18664 34.0675 5.70774 34.063C4.05224 34.0473 2.39562 34.0608 0.74012 34.054C0.0759097 34.0518 0.00111632 33.9639 0.00111632 33.2417C0.00223264 28.4379 0 23.6308 0 18.8236C0 12.8627 0.00223264 6.90079 0.00334896 0.93884C0.00334896 0.0127774 0.00446527 0.0127774 0.9098 0.0127774C2.50949 0.0127774 4.11029 0.0308029 5.70997 0.000384803C6.23464 -0.00975457 6.38088 0.179514 6.37753 0.683102C6.3619 4.02572 6.3686 7.3672 6.36749 10.7098C6.36749 10.9318 6.36749 11.1548 6.36749 11.5469C8.45612 9.66546 10.7066 8.52534 13.4327 8.45211C16.123 8.38001 18.5097 9.15624 20.5838 10.765C21.3987 10.2659 22.1221 9.67109 22.9504 9.35226C24.0109 8.94331 25.1417 8.63012 26.2681 8.50506C27.6657 8.34959 29.0846 8.42508 30.4711 8.80587C31.2168 9.01091 31.373 9.13258 31.3742 9.8919C31.3753 11.6753 31.3764 13.4598 31.3719 15.2432C31.3719 15.4595 31.3373 15.677 31.3072 16.0251C30.7423 15.659 30.2857 15.3311 29.8001 15.054C28.8401 14.5042 27.8377 14.0795 26.6945 14.1617C25.8127 14.2259 25.0737 14.5639 24.5869 15.3311C24.1828 15.9688 24.4329 17.0154 25.2791 17.5888C26.3797 18.3357 27.5575 18.9734 28.7341 19.5998C30.4108 20.4921 32.0283 21.4147 33.3322 22.8804C35.8339 25.6924 35.7166 29.7876 32.9705 32.4002C30.9265 34.3436 28.4594 34.7796 25.7903 34.5182C24.3659 34.3785 23.052 33.8895 21.8363 33.1313C21.7035 33.0468 21.5829 32.9398 21.4679 32.8519Z" fill="black"/>
<path d="M38.4224 31.4405C38.4224 31.7807 38.4224 32.0038 38.4224 32.2269C38.4224 35.5695 38.4235 38.9121 38.4213 42.2547C38.4213 42.9509 38.3834 42.9892 37.6968 42.9904C36.0402 42.9938 34.3847 42.9802 32.7292 42.9983C32.2715 43.0028 32.1174 42.8473 32.1208 42.3786C32.1387 39.7683 32.1175 37.158 32.1476 34.5477C32.1509 34.2852 32.3362 33.9359 32.5483 33.7782C35.1103 31.8686 36.2478 29.3135 35.7846 26.1511C35.4943 24.1706 34.3758 22.5843 32.823 21.3473C32.3351 20.9586 32.1052 20.5587 32.113 19.8996C32.1498 16.5198 32.1442 13.1389 32.1174 9.75912C32.113 9.17329 32.3061 9.02458 32.852 9.03359C34.4885 9.06288 36.1273 9.06063 37.7638 9.03584C38.2818 9.02796 38.4615 9.21497 38.4314 9.72532C38.3979 10.2774 38.4235 10.8316 38.4235 11.422C39.3512 10.7933 40.1784 10.1658 41.0659 9.64533C42.3519 8.89051 43.7685 8.5638 45.2554 8.45903C50.7399 8.0726 55.0444 12.0213 56.6888 16.0737C57.7158 18.604 57.8497 21.2065 57.526 23.8574C57.1342 27.0625 55.722 29.7517 53.3108 31.8934C51.8886 33.1563 50.2532 34.061 48.4023 34.3877C44.8346 35.0152 41.5738 34.2998 38.8232 31.7751C38.7283 31.6872 38.6256 31.6095 38.4224 31.4405ZM51.4878 21.5253C51.2891 20.5598 51.1987 19.5538 50.8683 18.6356C50.2309 16.8623 49.0565 15.5239 47.2782 14.8029C46.01 14.288 44.7341 14.1562 43.3655 14.448C41.8752 14.7657 40.6886 15.4845 39.7352 16.646C38.4983 18.1534 38.0563 19.9345 38.1523 21.8351C38.1992 22.7747 38.3588 23.7492 38.6848 24.6246C39.4271 26.6119 40.8482 27.9278 42.9167 28.4922C44.7799 29.0003 46.5738 28.8572 48.2103 27.8072C50.463 26.3618 51.3606 24.1739 51.4878 21.5253Z" fill="black"/>
</svg>
